<?xml version="1.0" standalone="no"?>
<!DOCTYPE svg PUBLIC "-//W3C//DTD SVG 20010904//EN"
 "http://www.w3.org/TR/2001/REC-SVG-20010904/DTD/svg10.dtd">
<svg version="1.0" xmlns="http://www.w3.org/2000/svg"
 width="500.000000pt" height="500.000000pt" viewBox="0 0 500.000000 500.000000"
 preserveAspectRatio="xMidYMid meet">

<g transform="translate(0.000000,500.000000) scale(0.100000,-0.100000)"
fill="#000000" stroke="none">
<path d="M1683 2590 c0 -30 2 -43 4 -27 2 15 2 39 0 55 -2 15 -4 2 -4 -28z"/>
<path d="M1945 2598 l-40 -43 43 40 c39 36 47 45 39 45 -2 0 -21 -19 -42 -42z"/>
<path d="M2043 2580 c0 -30 2 -43 4 -27 2 15 2 39 0 55 -2 15 -4 2 -4 -28z"/>
<path d="M1822 2568 c-2 -45 -14 -63 -25 -35 -3 7 -6 6 -6 -5 -1 -12 7 -16 30
-16 16 1 26 4 20 7 -5 4 -11 27 -14 51 l-4 45 -1 -47z"/>
<path d="M1603 2526 c4 -10 7 -47 7 -82 l0 -64 38 2 37 1 -33 4 -33 4 2 72 c2
52 -1 72 -11 75 -9 3 -11 -1 -7 -12z"/>
<path d="M2160 2510 c0 -15 7 -20 25 -20 25 0 25 -1 25 -80 0 -73 2 -80 20
-80 18 0 20 7 20 80 0 79 0 80 25 80 18 0 25 5 25 20 0 18 -7 20 -70 20 -63 0
-70 -2 -70 -20z"/>
<path d="M2340 2430 c0 -93 1 -100 20 -100 17 0 20 7 20 40 0 39 1 40 35 40
34 0 35 -1 35 -40 0 -33 3 -40 20 -40 19 0 20 7 20 100 0 93 -1 100 -20 100
-17 0 -20 -7 -20 -40 0 -39 -1 -40 -35 -40 -34 0 -35 1 -35 40 0 33 -3 40 -20
40 -19 0 -20 -7 -20 -100z"/>
<path d="M2555 2430 c0 -97 1 -100 23 -100 19 0 22 5 22 42 l0 42 31 -42 c22
-30 38 -42 56 -42 28 0 26 4 -20 57 -18 21 -18 22 2 42 47 47 11 101 -66 101
l-48 0 0 -100z m80 40 c0 -16 -6 -26 -17 -28 -14 -3 -18 3 -18 28 0 25 4 31
18 28 11 -2 17 -12 17 -28z"/>
<path d="M2755 2430 l0 -100 53 0 c45 0 52 3 52 20 0 16 -7 20 -30 20 -23 0
-30 4 -30 20 0 16 7 20 30 20 23 0 30 4 30 20 0 16 -7 20 -30 20 -23 0 -30 4
-30 20 0 16 7 20 30 20 23 0 30 4 30 20 0 17 -7 20 -52 20 l-53 0 0 -100z"/>
<path d="M2942 2431 c-40 -100 -40 -101 -17 -101 14 0 25 7 28 20 4 16 14 20
47 20 33 0 43 -4 47 -20 3 -13 14 -20 29 -20 l24 0 -21 53 c-12 28 -29 72 -39
97 -11 29 -24 46 -37 48 -17 3 -27 -13 -61 -97z m77 -8 c1 -7 -8 -13 -19 -13
-23 0 -25 12 -8 43 11 21 11 21 19 2 4 -11 8 -26 8 -32z"/>
<path d="M3130 2510 c0 -15 7 -20 25 -20 25 0 25 -1 25 -80 0 -73 2 -80 20
-80 18 0 20 7 20 80 0 73 2 80 20 80 13 0 20 7 20 20 0 18 -7 20 -65 20 -58 0
-65 -2 -65 -20z"/>
<path d="M1920 2486 c0 -2 7 -7 16 -10 8 -3 12 -2 9 4 -6 10 -25 14 -25 6z"/>
<path d="M1695 2471 c-3 -5 -2 -12 3 -15 5 -3 9 1 9 9 0 17 -3 19 -12 6z"/>
<path d="M1800 2429 c0 -5 5 -7 10 -4 6 3 10 -3 10 -13 0 -14 -7 -19 -26 -19
-20 0 -25 3 -21 19 4 16 3 17 -9 7 -7 -6 -11 -15 -8 -20 3 -5 0 -8 -7 -7 -6 2
-14 -3 -17 -11 -2 -8 0 -11 6 -7 6 3 13 0 15 -6 4 -10 6 -10 6 0 1 7 14 12 31
12 23 0 30 -4 30 -20 0 -17 -7 -20 -44 -20 -26 0 -46 5 -49 13 -3 6 -5 -4 -5
-23 0 -19 2 -27 5 -18 3 13 15 17 49 16 l44 -1 0 -50 c0 -28 3 -48 6 -44 3 3
6 26 6 51 0 33 4 46 14 46 8 0 14 -6 14 -12 0 -10 2 -10 9 0 10 17 44 12 53
-8 5 -11 7 -9 7 8 1 18 -4 22 -28 22 -16 0 -32 6 -34 13 -4 10 -6 10 -6 0 -2
-22 -31 -14 -31 7 0 18 6 20 40 18 22 -1 43 1 46 5 4 4 -7 7 -23 7 -17 0 -34
6 -36 13 -4 10 -6 10 -6 0 -1 -7 -5 -13 -11 -13 -14 0 -12 37 3 43 6 3 0 6
-15 6 -16 1 -28 -4 -28 -10z"/>
<path d="M1953 2360 c0 -47 2 -66 4 -42 2 23 2 61 0 85 -2 23 -4 4 -4 -43z"/>
<path d="M1972 2410 c0 -19 2 -27 5 -17 2 9 2 25 0 35 -3 9 -5 1 -5 -18z"/>
<path d="M1876 2417 c3 -10 9 -15 12 -12 3 3 0 11 -7 18 -10 9 -11 8 -5 -6z"/>
<path d="M2075 2420 c-3 -6 1 -7 9 -4 18 7 21 14 7 14 -6 0 -13 -4 -16 -10z"/>
<path d="M2044 2373 c-13 -20 -13 -25 -2 -16 8 7 18 10 22 6 4 -4 4 1 0 11 -6
15 -4 17 6 11 9 -5 11 -4 6 3 -10 16 -11 16 -32 -15z"/>
<path d="M1978 2363 c6 -2 18 -2 25 0 6 3 1 5 -13 5 -14 0 -19 -2 -12 -5z"/>
<path d="M1972 2320 c0 -19 2 -27 5 -17 2 9 2 25 0 35 -3 9 -5 1 -5 -18z"/>
<path d="M2022 2290 c0 -19 2 -27 5 -17 2 9 2 25 0 35 -3 9 -5 1 -5 -18z"/>
<path d="M1750 2296 c0 -10 -5 -14 -12 -10 -7 4 -8 3 -4 -5 4 -6 12 -9 17 -6
5 4 9 -1 9 -9 0 -8 4 -17 9 -21 6 -3 6 7 1 26 -11 38 -20 49 -20 25z"/>
<path d="M1572 2270 c0 -19 2 -27 5 -17 2 9 2 25 0 35 -3 9 -5 1 -5 -18z"/>
<path d="M1786 2275 c4 -8 8 -15 10 -15 2 0 4 7 4 15 0 8 -4 15 -10 15 -5 0
-7 -7 -4 -15z"/>
<path d="M1850 2275 c0 -8 2 -15 4 -15 2 0 6 7 10 15 3 8 1 15 -4 15 -6 0 -10
-7 -10 -15z"/>
<path d="M1876 2253 c-4 -11 -1 -11 14 -3 24 13 25 17 5 17 -8 0 -16 -6 -19
-14z"/>
<path d="M2170 2170 c0 -93 1 -100 20 -100 17 0 20 7 20 40 0 39 1 40 35 40
34 0 35 -1 35 -40 0 -33 3 -40 20 -40 19 0 20 7 20 100 0 93 -1 100 -20 100
-17 0 -20 -7 -20 -40 0 -39 -1 -40 -35 -40 -34 0 -35 1 -35 40 0 33 -3 40 -20
40 -19 0 -20 -7 -20 -100z"/>
<path d="M2381 2184 c3 -71 7 -88 23 -100 26 -19 76 -18 104 2 20 14 22 24 22
100 0 77 -2 84 -20 84 -18 0 -20 -7 -20 -75 0 -61 -3 -77 -16 -82 -35 -13 -49
11 -52 86 -3 64 -5 71 -23 71 -20 0 -21 -5 -18 -86z"/>
<path d="M2590 2170 c0 -93 1 -100 20 -100 16 0 19 8 22 63 l3 62 40 -62 c30
-46 46 -63 63 -63 21 0 22 3 22 100 0 93 -1 100 -20 100 -18 0 -20 -7 -20 -60
0 -33 -3 -60 -7 -60 -5 1 -25 28 -45 60 -26 41 -44 60 -58 60 -19 0 -20 -6
-20 -100z"/>
<path d="M2802 2253 c2 -10 13 -19 26 -21 21 -3 22 -8 22 -83 0 -72 2 -79 20
-79 18 0 20 7 20 80 0 79 0 80 25 80 18 0 25 5 25 20 0 18 -7 20 -71 20 -62 0
-70 -2 -67 -17z"/>
<path d="M2990 2170 l0 -100 55 0 c48 0 55 2 55 20 0 16 -7 20 -35 20 -28 0
-35 4 -35 20 0 16 7 20 35 20 28 0 35 4 35 20 0 16 -7 20 -35 20 -28 0 -35 4
-35 20 0 16 7 20 35 20 28 0 35 4 35 20 0 18 -7 20 -55 20 l-55 0 0 -100z"/>
<path d="M3158 2170 c3 -91 5 -100 23 -100 16 0 19 7 19 42 l0 42 31 -42 c22
-30 38 -42 56 -42 28 0 26 4 -20 57 -18 21 -18 22 2 42 47 47 11 101 -66 101
l-48 0 3 -100z m77 40 c0 -16 -6 -26 -17 -28 -14 -3 -18 3 -18 28 0 25 4 31
18 28 11 -2 17 -12 17 -28z"/>
<path d="M3380 2250 c-12 -12 -19 -28 -16 -37 3 -8 6 -19 6 -24 0 -5 18 -18
41 -29 49 -26 46 -45 -9 -45 -49 0 -64 -12 -38 -31 45 -32 126 -6 126 41 0 27
-9 37 -58 66 -27 16 -32 23 -22 34 8 9 22 12 42 8 26 -5 30 -3 26 13 -5 29
-70 32 -98 4z"/>
<path d="M1706 2241 c4 -17 3 -21 -6 -16 -9 6 -11 4 -5 -4 4 -7 -3 -23 -16
-39 l-24 -27 26 23 c36 32 45 14 10 -22 -22 -24 -30 -43 -33 -83 -4 -37 -1
-53 7 -53 8 0 11 15 7 51 -4 45 -2 53 23 79 16 16 33 26 39 23 6 -4 3 3 -6 14
-26 28 -22 40 5 16 12 -11 29 -24 37 -28 8 -4 1 5 -17 21 -17 16 -36 38 -43
49 -10 18 -10 18 -4 -4z"/>
<path d="M2118 2253 c7 -3 16 -2 19 1 4 3 -2 6 -13 5 -11 0 -14 -3 -6 -6z"/>
<path d="M1795 2240 c-3 -5 -1 -10 4 -10 6 0 11 5 11 10 0 6 -2 10 -4 10 -3 0
-8 -4 -11 -10z"/>
<path d="M1909 2203 l-24 -28 28 24 c25 23 32 31 24 31 -2 0 -14 -12 -28 -27z"/>
<path d="M1950 2226 c0 -2 7 -7 16 -10 8 -3 12 -2 9 4 -6 10 -25 14 -25 6z"/>
<path d="M1926 2191 c-10 -11 -16 -29 -13 -43 l4 -23 2 23 c0 13 8 30 16 39
14 14 18 13 38 -3 l22 -19 -19 23 c-23 27 -28 27 -50 3z"/>
<path d="M1764 2156 c11 -9 24 -16 30 -16 12 0 7 5 -24 19 -24 11 -24 11 -6
-3z"/>
<path d="M1819 2068 c5 -76 8 -70 13 20 2 30 -1 52 -7 52 -6 0 -8 -28 -6 -72z"/>
<path d="M2031 2124 c0 -11 3 -14 6 -6 3 7 2 16 -1 19 -3 4 -6 -2 -5 -13z"/>
<path d="M1528 2103 c12 -2 32 -2 45 0 12 2 2 4 -23 4 -25 0 -35 -2 -22 -4z"/>
<path d="M1743 2050 c0 -30 2 -43 4 -27 2 15 2 39 0 55 -2 15 -4 2 -4 -28z"/>
<path d="M1903 2093 c9 -2 23 -2 30 0 6 3 -1 5 -18 5 -16 0 -22 -2 -12 -5z"/>
<path d="M1608 2073 c6 -2 18 -2 25 0 6 3 1 5 -13 5 -14 0 -19 -2 -12 -5z"/>
<path d="M1925 2071 c-6 -11 13 -26 22 -17 4 3 0 6 -8 6 -11 0 -11 2 1 10 9 6
10 10 3 10 -6 0 -14 -4 -18 -9z"/>
</g>
</svg>
